<svg width="61" height="64" viewBox="0 0 61 64" fill="none" xmlns="http://www.w3.org/2000/svg">
<path d="M28.8025 63.8009L5.3303 57.4903L0.0996094 0.6716H57.5758L52.3396 57.4814L28.8025 63.8009Z" fill="#264DE4"/>
<path d="M47.8584 53.8639L52.3332 5.31732H28.8394V58.9705L47.8584 53.8639Z" fill="#2965F1"/>
<path d="M12.0928 26.3906L12.7377 33.3591H28.8397V26.3906H12.0928Z" fill="#EBEBEB"/>
<path d="M10.7949 12.2861L11.449 19.2547H28.8376V12.2861H10.7949Z" fill="#EBEBEB"/>
<path d="M28.8386 44.4887L28.807 44.4969L20.7935 42.4012L20.2812 36.8435H13.0581L14.0662 47.7851L28.8055 51.7479L28.8386 51.739V44.4887Z" fill="#EBEBEB"/>
<path d="M45.5401 26.3907L46.8391 12.2861H28.8145V19.2547H38.9535L38.2988 26.3907H28.8145V33.3592H37.6748L36.8396 42.3969L28.8145 44.4946V51.7446L43.5655 47.7852L43.6737 46.6079L45.3645 28.2619L45.5401 26.3907Z" fill="white"/>
</svg>
