<svg width="82" height="75" viewBox="0 0 82 75" fill="none" xmlns="http://www.w3.org/2000/svg">
<path fill-rule="evenodd" clip-rule="evenodd" d="M39.5531 0C17.7113 0 0 17.214 0 38.4493C0 55.4375 11.3331 69.8498 27.0489 74.934C29.0256 75.2898 29.7514 74.0999 29.7514 73.0842C29.7514 72.1675 29.7145 69.1384 29.6978 65.9257C18.6938 68.2516 16.3719 61.3892 16.3719 61.3892C14.5726 56.9449 11.9802 55.7634 11.9802 55.7634C8.39175 53.377 12.2507 53.4258 12.2507 53.4258C16.2226 53.6972 18.3141 57.3882 18.3141 57.3882C21.8418 63.2663 27.567 61.5668 29.824 60.5846C30.1789 58.0993 31.2042 56.4033 32.3352 55.4432C23.5501 54.4707 14.3146 51.1738 14.3146 36.4413C14.3146 32.2437 15.8597 28.8135 18.3901 26.121C17.9794 25.1524 16.6256 21.2419 18.7732 15.9457C18.7732 15.9457 22.0946 14.9123 29.6531 19.887C32.8079 19.0348 36.1917 18.6078 39.5531 18.5933C42.9145 18.6078 46.3007 19.0348 49.4618 19.887C57.0113 14.9123 60.328 15.9457 60.328 15.9457C62.4809 21.2419 61.1265 25.1524 60.7158 26.121C63.2518 28.8135 64.7864 32.2434 64.7864 36.4413C64.7864 51.2088 55.5335 54.4607 46.726 55.4124C48.1446 56.6057 49.4087 58.9457 49.4087 62.5327C49.4087 67.6771 49.3628 71.8177 49.3628 73.0842C49.3628 74.1074 50.0747 75.3064 52.0799 74.9288C67.787 69.839 79.1059 55.4317 79.1059 38.4493C79.1059 17.214 61.397 0 39.5531 0Z" fill="#3F3C3C"/>
<path d="M14.8325 54.7613C14.7463 54.9528 14.4389 55.0103 14.1596 54.879C13.8747 54.7531 13.7146 54.4917 13.807 54.2993C13.8916 54.1021 14.199 54.047 14.4833 54.1795C14.7688 54.3051 14.9314 54.5689 14.8325 54.7613ZM16.7641 56.4543C16.5769 56.6249 16.2107 56.5456 15.9622 56.2761C15.7053 56.0071 15.6573 55.6477 15.8473 55.4744C16.0404 55.304 16.3955 55.3836 16.653 55.6529C16.9098 55.9248 16.9597 56.2821 16.7638 56.4546L16.7641 56.4543ZM18.0894 58.6204C17.8485 58.7847 17.4549 58.6307 17.2119 58.2876C16.9714 57.9449 16.9714 57.5334 17.2172 57.3685C17.4611 57.2037 17.8485 57.3519 18.0949 57.6922C18.3351 58.0411 18.3351 58.4525 18.0891 58.6207L18.0894 58.6204ZM20.3302 61.1293C20.1149 61.3623 19.6566 61.3 19.321 60.9817C18.9779 60.6707 18.8821 60.2293 19.098 59.996C19.3157 59.7625 19.7768 59.8281 20.1149 60.1437C20.4558 60.4541 20.5599 60.8988 20.3305 61.1293H20.3302ZM23.2264 61.9764C23.1318 62.2783 22.6902 62.4157 22.2455 62.2874C21.8014 62.1552 21.5107 61.8013 21.6003 61.496C21.6927 61.192 22.1362 61.0489 22.5843 61.1862C23.0278 61.3178 23.3191 61.669 23.2267 61.9764H23.2264ZM26.523 62.3355C26.5341 62.6538 26.1568 62.9176 25.6899 62.9233C25.2202 62.9333 24.8405 62.6759 24.8356 62.3631C24.8356 62.0418 25.2042 61.7804 25.6736 61.7728C26.1405 61.7637 26.523 62.0194 26.523 62.3355ZM29.761 62.2136C29.8171 62.524 29.4925 62.8429 29.029 62.9276C28.5732 63.0093 28.1512 62.8178 28.093 62.5101C28.0364 62.1918 28.3671 61.8733 28.822 61.7907C29.2864 61.7114 29.7019 61.8981 29.761 62.2136Z" fill="#3F3C3C"/>
</svg>
