<svg width="64" height="67" viewBox="0 0 64 67" fill="none" xmlns="http://www.w3.org/2000/svg">
<path d="M59.951 0.176331L54.4988 60.1217L29.9909 66.79L5.55045 60.1311L0.104004 0.176331H59.951Z" fill="#E44D26"/>
<path d="M30.0273 61.693L49.8309 56.3045L54.4902 5.07846H30.0273V61.693Z" fill="#F16529"/>
<path d="M19.4298 19.7851H30.0286V12.4319H11.2417L11.421 14.4046L13.2625 34.668H30.0286V27.3149H20.1145L19.4298 19.7851Z" fill="#EBEBEB"/>
<path d="M21.1172 38.3446H13.5962L14.6458 49.8902L29.9931 54.0717L30.0276 54.0623V46.4119L29.9948 46.4204L21.6506 44.2092L21.1172 38.3446Z" fill="#EBEBEB"/>
<path d="M30.002 34.668H39.2278L38.3581 44.2045L30.002 46.4181V54.0682L45.3614 49.8903L45.4741 48.648L47.2347 29.2894L47.4175 27.3148H30.002V34.668Z" fill="white"/>
<path d="M30.002 19.7672V19.7851H48.0992L48.2495 18.1323L48.5909 14.4046L48.7701 12.4319H30.002V19.7672Z" fill="white"/>
</svg>
