<svg width="72" height="83" viewBox="0 0 72 83" fill="none" xmlns="http://www.w3.org/2000/svg">
<path d="M72 62.2301L36 83L0 62.2301V20.7301L36 0L72 20.7301V62.2301Z" fill="#F7DF1E"/>
<path d="M52.9489 53.3881C54.1865 55.4055 55.7966 56.8883 58.6444 56.8883C61.0367 56.8883 62.5649 55.6947 62.5649 54.0453C62.5649 52.0688 60.9948 51.3688 58.3616 50.2189L56.9182 49.6007C52.7519 47.8286 49.9841 45.6087 49.9841 40.9158C49.9841 36.5928 53.2834 33.3019 58.4396 33.3019C62.1105 33.3019 64.7495 34.5774 66.6513 37.917L62.1553 40.799C61.1654 39.0269 60.0975 38.3288 58.4396 38.3288C56.7485 38.3288 55.6767 39.3998 55.6767 40.799C55.6767 42.5281 56.7495 43.2282 59.2266 44.2992L60.67 44.9165C65.5756 47.0166 68.3453 49.1576 68.3453 53.9713C68.3453 59.1608 64.2619 62.0038 58.778 62.0038C53.416 62.0038 49.9519 59.4529 48.2569 56.1094L52.9489 53.3881ZM32.5533 53.8876C33.4603 55.4941 34.2853 56.8523 36.269 56.8523C38.1659 56.8523 39.3625 56.1114 39.3625 53.2304V33.631H45.1361V53.3083C45.1361 59.2767 41.631 61.9931 36.5148 61.9931C31.8921 61.9931 29.215 59.6048 27.8535 56.7282L32.5533 53.8876Z" fill="black"/>
</svg>
