<svg width="74" height="76" viewBox="0 0 74 76" fill="none" xmlns="http://www.w3.org/2000/svg">
<path d="M73.9583 17.1633C73.9857 17.2645 74 17.3688 74 17.4735V33.7583C74 34.1837 73.7715 34.5767 73.4009 34.7883L59.6766 42.6576V58.2552C59.6766 58.6797 59.4501 59.0715 59.0805 59.2852L30.4322 75.7095C30.3666 75.7466 30.2951 75.7703 30.2235 75.7956C30.1967 75.8045 30.1714 75.8208 30.1431 75.8282C29.9428 75.8808 29.7323 75.8808 29.532 75.8282C29.4993 75.8193 29.4694 75.8015 29.4382 75.7896C29.3726 75.7659 29.304 75.7451 29.2414 75.7095L0.599106 59.2852C0.228756 59.0733 0 58.6805 0 58.2552V9.40092C0 9.29405 0.0149031 9.19016 0.0417288 9.08923C0.0506706 9.0551 0.071535 9.02393 0.0834575 8.98979C0.105812 8.92745 0.126677 8.86363 0.159463 8.80575C0.181818 8.76716 0.214605 8.73599 0.241431 8.70037C0.275708 8.65288 0.307004 8.6039 0.347243 8.56234C0.38152 8.5282 0.42623 8.50297 0.464978 8.47329C0.508197 8.43767 0.546945 8.39908 0.596125 8.37088H0.597616L14.9195 0.158741C15.2886 -0.0527511 15.7427 -0.0527511 16.1118 0.158741L30.4337 8.37088H30.4367C30.4844 8.40056 30.5246 8.43767 30.5678 8.4718C30.6066 8.50149 30.6498 8.5282 30.6841 8.56086C30.7258 8.6039 30.7556 8.65288 30.7914 8.70037C30.8167 8.73599 30.851 8.76716 30.8718 8.80575C30.9061 8.86512 30.9255 8.92745 30.9493 8.98979C30.9613 9.02393 30.9821 9.0551 30.9911 9.09072C31.0185 9.19186 31.0325 9.29615 31.0328 9.40092V39.9148L42.9672 33.0711V17.4721C42.9672 17.3682 42.9821 17.2628 43.0089 17.1633C43.0194 17.1277 43.0387 17.0965 43.0507 17.0624C43.0745 17.0001 43.0954 16.9363 43.1282 16.8784C43.1505 16.8398 43.1833 16.8086 43.2086 16.773C43.2444 16.7255 43.2742 16.6765 43.3159 16.635C43.3502 16.6008 43.3934 16.5756 43.4322 16.5459C43.4769 16.5103 43.5156 16.4717 43.5633 16.4435H43.5648L57.8882 8.23136C58.2572 8.01956 58.7115 8.01956 59.0805 8.23136L73.4024 16.4435C73.4531 16.4732 73.4918 16.5103 73.5365 16.5444C73.5738 16.5741 73.617 16.6008 73.6513 16.6335C73.693 16.6765 73.7228 16.7255 73.7586 16.773C73.7854 16.8086 73.8182 16.8398 73.8391 16.8784C73.8733 16.9363 73.8927 17.0001 73.9165 17.0624C73.93 17.0965 73.9493 17.1277 73.9583 17.1633ZM71.6125 33.0711V19.5292L66.6006 22.4026L59.6766 26.3729V39.9148L71.614 33.0711H71.6125ZM57.2906 57.568V44.0172L50.4799 47.8909L31.0313 58.9453V72.6238L57.2906 57.568ZM2.38748 11.4565V57.568L28.6438 72.6223V58.9468L14.927 51.2156L14.9225 51.2126L14.9165 51.2096C14.8703 51.1829 14.8316 51.1443 14.7884 51.1117C14.7511 51.082 14.7079 51.0583 14.6751 51.0256L14.6721 51.0211C14.6334 50.984 14.6066 50.938 14.5738 50.8965C14.544 50.8564 14.5082 50.8223 14.4844 50.7807L14.4829 50.7762C14.456 50.7317 14.4396 50.6783 14.4203 50.6278C14.4009 50.5833 14.3756 50.5417 14.3636 50.4942V50.4928C14.3487 50.4364 14.3458 50.377 14.3398 50.3191C14.3338 50.2746 14.3219 50.2301 14.3219 50.1855V50.1826V18.3002L7.3994 14.3285L2.38748 11.458V11.4565ZM15.5171 2.56019L3.5842 9.40092L15.5142 16.2416L27.4456 9.39943L15.5142 2.56019H15.5171ZM21.7228 45.252L28.6453 41.2832V11.4565L23.6334 14.33L16.7094 18.3002V48.1269L21.7228 45.252ZM58.4844 10.6328L46.5529 17.4735L58.4844 24.3143L70.4143 17.4721L58.4844 10.6328ZM57.2906 26.3729L50.3666 22.4026L45.3547 19.5292V33.0711L52.2772 37.0399L57.2906 39.9148V26.3729ZM29.8361 56.8897L47.3368 46.9396L56.0849 41.9675L44.1624 35.1312L30.4352 43.002L17.924 50.1751L29.8361 56.8897Z" fill="#FF2D20"/>
</svg>
