<svg width="52" height="70" viewBox="0 0 52 70" fill="none" xmlns="http://www.w3.org/2000/svg">
<g clip-path="url(#clip0)">
<path d="M21.9847 69.9745C21.72 69.9443 20.9156 69.8542 20.1971 69.7742C14.1555 69.1019 8.48308 67.2428 4.38328 64.5911C2.88048 63.6192 1.01369 61.7353 0.464186 60.6363L0.0516795 59.8113L0.015684 34.6213C-0.019316 9.69708 -0.0173181 9.42365 0.255682 8.70039C1.49948 5.40433 7.54148 2.26222 15.3841 0.833051C19.1272 0.150931 20.9173 0.00632993 25.6974 -0.000170075C30.2527 -0.00617007 31.4807 0.0777312 34.842 0.626081C38.8758 1.28413 42.6045 2.38799 45.4667 3.7715C48.5202 5.24745 50.455 6.87305 51.3122 8.68281L51.7559 9.61955V34.5779C51.7559 58.7197 51.7459 59.5587 51.4959 60.2238C50.2207 63.5966 45.0929 66.7845 38.0031 68.6122C34.0713 69.6257 31.5689 69.9262 26.5913 69.9826C24.3223 70.0083 22.2493 70.0046 21.9846 69.9746L21.9847 69.9745ZM43.3357 49.2458C45.1671 48.7217 46.509 47.6842 46.9216 46.4732C47.1199 45.8911 47.1493 45.0271 47.1493 39.7788V33.7528H44.6076H42.0659L42.0289 37.4313L41.9919 41.1097L39.3019 41.0997C37.8224 41.0947 36.5075 41.0499 36.3798 41.0009C36.1701 40.9205 36.1476 40.5646 36.1476 37.3322V33.7526L32.6755 33.7566L29.2033 33.7606L29.8559 34.1348L30.5085 34.509V37.8874C30.5085 41.735 30.6005 42.2666 31.4302 43.2356C32.1057 44.0248 33.5063 44.6781 34.9538 44.8792C35.5454 44.9614 36.9786 45.0286 38.1387 45.0286C39.8472 45.0286 40.4124 44.9774 41.1137 44.7591C41.5899 44.6109 42.0038 44.514 42.0335 44.5437C42.0635 44.5734 42.0145 44.8182 41.9257 45.0877C41.6218 46.0085 41.7347 45.9912 36.0477 45.9912H30.9216V47.7915V49.5917L36.7315 49.5322C41.592 49.4824 42.6709 49.4356 43.3343 49.2457L43.3357 49.2458ZM18.6469 44.8415C19.0363 44.6442 19.5128 44.2757 19.7058 44.0227C19.8988 43.7698 20.7426 42.0517 21.5809 40.2048C22.4192 38.3579 23.1624 36.788 23.2325 36.7162C23.3105 36.636 23.3598 38.2413 23.3598 40.8759V45.1662H25.9038H28.4478V39.3908C28.4478 34.8679 28.4848 33.6129 28.6197 33.6044C28.7572 33.5954 28.7572 33.5797 28.6197 33.5242C28.4991 33.4755 28.4469 33.058 28.4447 32.1256C28.4447 30.5733 28.2184 29.9375 27.4374 29.2518C26.4186 28.3573 23.7169 28.023 22.3758 28.6254C20.9892 29.2483 20.7864 29.6042 17.1218 37.8438C16.8106 38.5434 16.5158 39.1158 16.4667 39.1158C16.4177 39.1158 15.5892 37.2749 14.6259 35.0248C12.5262 30.1205 12.4861 30.0389 11.8745 29.4273C10.9043 28.4571 9.76599 28.1512 8.02569 28.3933C6.52639 28.6018 5.77419 28.9921 5.38019 29.7657L5.07078 30.3733V37.7698V45.1663H7.40848H9.74618V40.8759C9.74618 38.3198 9.79618 36.6384 9.87028 36.7162C9.93828 36.7881 10.6234 38.2392 11.3922 39.9409C13.0438 43.5967 13.3085 44.075 13.9531 44.5666C15.0371 45.3934 17.2967 45.5257 18.6469 44.8415ZM29.8916 14.7703C36.3729 14.2913 41.4957 12.8451 43.3775 10.9632C44.1773 10.1635 44.3824 9.49416 44.0746 8.68831C43.292 6.63916 39.1414 4.9708 32.6419 4.09291C30.0114 3.73761 21.5954 3.73878 18.9595 4.09489C13.8457 4.78562 10.0481 6.02044 8.41888 7.52223C7.36688 8.49192 7.16668 9.22529 7.67958 10.2306C8.05898 10.9744 8.77098 11.5248 10.365 12.3067C13.0092 13.6036 17.0351 14.4453 22.3973 14.8223C23.9196 14.9293 28.137 14.9001 29.8916 14.7704V14.7703Z" fill="#00BCF2"/>
</g>
<defs>
<clipPath id="clip0">
<rect width="51.756" height="70" fill="white"/>
</clipPath>
</defs>
</svg>
