<svg width="98" height="51" viewBox="0 0 98 51" fill="none" xmlns="http://www.w3.org/2000/svg">
<path d="M48.9997 49.1058C75.0043 49.1058 96.0852 38.5371 96.0852 25.5C96.0852 12.4629 75.0043 1.8942 48.9997 1.8942C22.995 1.8942 1.91406 12.4629 1.91406 25.5C1.91406 38.5371 22.995 49.1058 48.9997 49.1058Z" fill="#6181B6"/>
<path d="M58.5335 33.129L60.8733 21.2382C61.405 18.555 60.9618 16.5558 59.5619 15.2928C58.2146 14.0652 55.929 13.4688 52.5616 13.4688H48.522L49.6733 7.57619C49.7091 7.34819 49.6564 7.12019 49.5145 6.94501C49.3726 6.76983 49.1605 6.66418 48.9294 6.66418H43.3473C42.975 6.66418 42.6737 6.92762 42.6028 7.27798L40.1218 19.905C39.8915 18.4841 39.3422 17.2565 38.4564 16.2569C36.8261 14.3982 34.2209 13.4688 30.765 13.4688H19.9373C19.565 13.4688 19.2637 13.7322 19.1927 14.0826L14.1599 39.6347C14.1248 39.8634 14.1775 40.0914 14.3194 40.2666C14.4613 40.4417 14.6734 40.5474 14.9045 40.5474H20.5399C20.9122 40.5474 21.2136 40.2833 21.2845 39.9336L22.5074 33.7421H26.6896C28.8867 33.7421 30.7299 33.5141 32.1831 33.0407C33.654 32.5667 35.0181 31.7603 36.2059 30.6558C37.1801 29.7785 37.9781 28.797 38.5807 27.7272L37.5706 32.8308C37.5348 33.0581 37.5882 33.2868 37.7301 33.4613C37.872 33.6372 38.0848 33.7421 38.3152 33.7421H43.8973C44.2696 33.7421 44.5709 33.4787 44.6418 33.1283L47.389 19.0986H51.2171C52.8467 19.0986 53.3258 19.4142 53.4501 19.5546C53.5744 19.6776 53.8223 20.1336 53.5386 21.519L51.3583 32.8482C51.3225 33.0769 51.3759 33.3042 51.5178 33.4794C51.6596 33.6545 51.8718 33.7602 52.1022 33.7602H57.7734C58.1444 33.7428 58.4626 33.4974 58.5335 33.129ZM32.6601 23.3076C32.3061 25.0962 31.6501 26.3585 30.6927 27.0953C29.7184 27.8322 28.176 28.1999 26.0856 28.1999H23.5864L25.3944 19.0103H28.6192C30.994 19.0103 31.9507 19.5192 32.323 19.9397C32.8554 20.5194 32.9797 21.6768 32.6601 23.3076Z" fill="white"/>
<path d="M82.4044 16.2576C80.7741 14.3988 78.1688 13.4695 74.7129 13.4695H63.8859C63.5136 13.4695 63.2123 13.7329 63.1414 14.0832L58.1255 39.6535C58.0897 39.8808 58.1437 40.1095 58.2849 40.284C58.4268 40.4598 58.6396 40.5648 58.8693 40.5648H64.5055C64.8777 40.5648 65.1784 40.302 65.25 39.951L66.4729 33.7602H70.6551C72.8523 33.7602 74.6954 33.5322 76.1487 33.0581C77.6202 32.5854 78.9843 31.7784 80.1714 30.6738C81.1639 29.7618 81.997 28.7448 82.6172 27.6396C83.2374 26.535 83.68 25.3074 83.9462 23.9916C84.5671 20.7294 84.0529 18.1344 82.4044 16.2576ZM76.5743 23.3076C76.221 25.0962 75.5649 26.3585 74.6082 27.0953C73.6333 27.8322 72.0915 28.1999 70.0004 28.1999H67.5019L69.3092 19.0103H72.5347C74.9096 19.0103 75.8663 19.5192 76.2379 19.9397C76.7871 20.5194 76.8932 21.6768 76.5743 23.3076Z" fill="white"/>
</svg>
